<svg xmlns="http://www.w3.org/2000/svg" width="1655.11" height="500" viewBox="0 0 1655.11 500"><g id="Layer_2" data-name="Layer 2"><g id="Layer_1-2" data-name="Layer 1"><polyline points="97.01 307.6 99.61 313.43 175.4 340.7 340.03 336.88 420.99 319.56 424.82 311.31 427.37 307.6 440.33 266.71 437.41 243.32 409.97 214.99 242.87 213.64 153.36 196.09 115.8 198.12 102.53 205.76 100.96 214.99 86.11 248.27 86.11 278.86" fill="#131223"/><path d="M180.87,467s7.55,9.58,16.63,12.43,21.17.17,36.28,10.92S261.86,500,261.86,500s12.95,1.17,28.07-9.58,27.21-8.06,36.28-10.92S342.84,467,342.84,467s-25.9-17.8-81-17.8S180.87,467,180.87,467Z" fill="#03f5ae"/><path d="M436.94,206.47s9.24,20.16,6.89,34.77c0,0-8.05-28-17.72-34.65l5.09-12.85-4.7-3.36c-66-40-164.64-38.61-164.64-38.61,95.56-8.4,163.05,22.41,163.05,22.41l5.62-23.11-17.31-8.4s.76-16.49-2.1-22.54c-1.69-3.57-6.59-7.08-10.33-9.36C364.84,95,303,91.62,303,91.62c55.06-5.09,82.45-1.69,93.43.59-1.92-11.6-6.83-28.72-19.31-31.35-8.15-1.72-13.5-1.25-18.71.49-2.26-2.62-9.38-10.25-17.63-12.84-10-3.16-23.4-.19-40.11-12.07s-31-10.59-31-10.59-14.32-1.29-31,10.59-30.08,8.91-40.1,12.07-18.38,13.73-18.38,13.73,20.13,13.83,62.51,18.3c-15.65-.85-37.86,1-51.13-3.7C168.85,68.78,165.15,60.72,146,64.75c-14,3-17.34,13.92-18.73,25.08,34-6.11,53.43,1.79,53.43,1.79-48.82,5.21-65.35,18.41-66.34,19.24l0,0a14.6,14.6,0,0,0-3.17,4.06c-1.59,3.36-.36,4.59-.08,11.19,67.84-20.61,122-6.29,122-6.29-49.45,1.15-95.67,9.74-139.92,31.22l6.51,22.77c40.67-14.69,63.53-4.26,63.53-4.26a284.28,284.28,0,0,0-69.66,26.83L97.74,207c-9.43,7.24-17.19,34.27-17.19,34.27-2.35-14.61,6.89-34.77,6.89-34.77-19.15,1.18-26.38,19.32-26.38,34.44s9.75,32.25,21.51,43.34S97,307.6,97,307.6c8.91-24.37-8.4-26.38-3.69-55.27S132.79,208,132.79,208a148,148,0,0,0-21.67-3.1c15-2.24,25.44-26.25,118.11,33.94s150.06-.69,180.8-19.12c9.14,7.47,18.72,18.43,21,32.63,4.71,28.89-12.6,30.9-3.69,55.27,0,0,2.68-12.27,14.44-23.35s21.51-28.22,21.51-43.34S456.09,207.65,436.94,206.47Z" fill="#03f5ae"/><path d="M487,165.38c-19.9-11.15-52.56-13.29-52.56-13.29l-5.26,23.58c32.83,13.55,51.05,50.44,51.05,50.44s1.46-3.77,8.5-12.07c7.67-9,32.31-16.78,32.31-16.78S504.23,175,487,165.38Z" fill="#03f5ae"/><path d="M434.37,453.46c.58-7.14,1.65-9.57,1.65-9.57A160.83,160.83,0,0,1,396,433c-11,2.28-37.9,1.71-93-3.39,0,0,63.28,1.82,99.23-14,3.74-2.28,8.64-5.79,10.33-9.36,2.86-6.05.67-27.71.67-27.71l17.31-8.41L424.91,347s-67.49,30.82-163,22.41c0,0,98.66,1.4,164.64-38.61l4.7-3.36-6.38-16.13c-68.53,28-257.4,28-325.93,0l-5.32,13.46a284,284,0,0,0,69.65,26.83s-20.89,3.86-63.29-6.77l-6.75,25.28c44.25,21.49,90.47,30.08,139.92,31.23,0,0-54.88,13.29-122.71-7.32-.28,6.61-.81,8.86.77,12.21a14.49,14.49,0,0,0,3.17,4.07l0,0c1,.82,17.52,14,66.34,19.24,0,0-18.51,10.37-52.48,4.25,1.39,11.17,4.37,23.56,18.38,26.51,19.16,4,22.85-4,45.53-12.1S261.86,440,261.86,440s47.05.17,69.72,8.23,26.37,16.13,45.53,12.1a19,19,0,0,0,5-1.83c4.57,3.74,17.27,13.51,28.85,16.78,12.5,3.52,30.64,1,30.64,1S433.73,461.22,434.37,453.46Z" fill="#03f5ae"/><path d="M80.22,287.92c-32.79,13.63-71.76.42-71.76.42S10.09,292,11,302.89c1,11.8-11,34.72-11,34.72s27.59,3.83,46.61-1.53c22-6.19,46.57-27.77,46.57-27.77Z" fill="#03f5ae"/><path d="M178.11,60.13l11.81-11.79c-14.1-20.08-11-48.34-11-48.34s-2.25,1.66-9.43,3.88c-7.82,2.42-25.06-2.2-25.06-2.2s1.55,19.18,8,31.21C159.87,46.77,178.11,60.13,178.11,60.13Z" fill="#03f5ae"/><path d="M159.53,255.33s-8.76,21,8.39,29.44,60.26,4.16,60.26,4.16-37.37-27.54-68.65-33.6Z" fill="#fff" fill-rule="evenodd"/><path d="M373.08,276.93S376.44,294.4,362,298.1s-46.7-6.38-46.7-6.38,32.92-15.12,57.79-14.79Z" fill="#fff" fill-rule="evenodd"/><path d="M702.15,133.91c.49-.1,1-.17,1.39-.22a10.74,10.74,0,0,1,1.23-.07,5.61,5.61,0,0,1,4.23,1.67c1.06,1.12,1.79,3.08,2.18,5.9q.29,2.63,1,7.35c.43,3.16.92,6.65,1.45,10.49s1.12,7.79,1.75,11.86,1.19,7.84,1.67,11.29.93,6.41,1.32,8.88.63,4.06.72,4.73q3.21,25.78,5.68,41.36t3.5,23L738,338.93l-1.45,4.52q-.3,1-3.79,2.47c-2.33,1-5.15,2-8.44,3.13s-6.9,2.21-10.78,3.28-7.48,2-10.77,2.91-6.1,1.58-8.38,2.11-3.47.8-3.56.8q-3.49,0-5.54-5.09a64.17,64.17,0,0,1-3.35-13q-1.3-7.86-2.11-17.19T678,305q-.87-7.12-1.6-14.41c-.49-4.85-1-9.81-1.6-14.85l-5.68-42.52-54,98.87a18.28,18.28,0,0,1-5,5,9,9,0,0,1-4.67,1.53,6.64,6.64,0,0,1-5-1.89,10.5,10.5,0,0,1-2.55-4.66q-2.76-9.18-4.73-15.51T589.52,305q-1.68-5.24-3.13-10.19t-3.28-11.43q-1.82-6.48-4.07-15.29t-5.46-21.62l-4.52,21-21,89c-.29,1.16-1.5,1.74-3.64,1.74a42.09,42.09,0,0,1-8.37-1.16q-5.31-1.17-11.07-2.84t-11.21-3.5a91.17,91.17,0,0,1-8.66-3.27,6.22,6.22,0,0,1-1.82-1.39,4.64,4.64,0,0,1-1.1-3.42,14.82,14.82,0,0,1,.44-2.47c.29-1.26.66-2.74,1.09-4.44s.93-3.43,1.46-5.17,1-3.3,1.53-4.66a88,88,0,0,0,3.42-11.65q1.53-6.71,2.84-13.54c.87-4.57,1.68-8.93,2.4-13.11s1.43-7.67,2.11-10.48l17.92-83.59,5.38-23.58q1-4.51,2-8.81c.63-2.87,1.19-5.46,1.67-7.8s.88-4.22,1.17-5.67.43-2.28.43-2.48l36.41-11.21a15.71,15.71,0,0,1,3.57.36,2.76,2.76,0,0,1,2,2.41l29,93.19,39.75-83.73Z" fill="#fff"/><path d="M901.55,330.2a27.17,27.17,0,0,1-1.16,6.62,4.13,4.13,0,0,1-3.2,2.4q-12.39,3.5-25.85,7.07a160.06,160.06,0,0,0-26.14,9.39,4.71,4.71,0,0,1-1.31.14c-.78,0-1.24-.19-1.38-.58a3.6,3.6,0,0,1-.22-1.31c0-.19,0-.53.07-1s.17-1.38.37-2.69.46-3.13.8-5.46.8-5.44,1.38-9.32Q828.61,346.07,816,351t-22.35,4.87q-24.33,0-35.46-11.72t-11.14-35q0-4.21.14-8.66a74.41,74.41,0,0,1,.88-9.1q1.6-17.19,2.76-29.49t1.9-20.9q.72-8.58,1.23-14.05c.34-3.64.64-6.67.88-9.1s.44-4.44.58-6,.32-3.18.51-4.73a56,56,0,0,1,1.09-6.56c.34-1.26,1.43-2.08,3.28-2.47q6.84-1.32,13-2.4t12.23-2.33q6-1.25,12.31-2.7t13.25-3.49a2.32,2.32,0,0,0,.58-.08,2.87,2.87,0,0,1,.58-.07c1.17,0,1.75.39,1.75,1.17v.29q-.59,4.95-1,9.32t-.87,8.95q-.43,4.59-.95,9.83T810,228.63c-.48,4.61-1.07,9.93-1.74,16s-1.51,13-2.48,21q-.87,8.74-1.75,17.4T803.12,299a44.62,44.62,0,0,0,.58,7.5,15.6,15.6,0,0,0,2.11,5.83,10.5,10.5,0,0,0,4,3.71,13.57,13.57,0,0,0,6.41,1.31,34.82,34.82,0,0,0,8.3-1.38A35.78,35.78,0,0,0,835,311.19a34.83,34.83,0,0,0,9.25-9q4-5.61,4.58-14.2,1-14.42,1.82-24.1t1.39-16.31q.57-6.63,1-11.14c.29-3,.55-5.9.8-8.66s.46-5.73.65-8.89.39-7.11.58-11.86a31,31,0,0,1,1.1-6.63q.64-1.81,3.27-2.4,13.24-2.62,27.09-5.32a240.22,240.22,0,0,0,27.08-6.91q1.17,0,1.38.36a2.14,2.14,0,0,1,.22,1.09Z" fill="#fff"/><path d="M1145.9,353.49c-1.07.3-2.48.76-4.23,1.39a14.91,14.91,0,0,1-5.09.94,6.36,6.36,0,0,1-3.57-1,3.91,3.91,0,0,1-1.53-3.5v-.87q1-10.63,1.75-17.26c.48-4.42.87-8,1.16-10.7s.53-4.78.73-6.19.39-2.72.58-3.93.37-2.55.51-4,.37-3.51.66-6.18.65-6.22,1.09-10.63,1-10.22,1.67-17.4q.58-5.83,1.24-11.58a93.34,93.34,0,0,0,.66-10.56,86,86,0,0,0-.66-11.14,29.06,29.06,0,0,0-2.33-8.59,13.81,13.81,0,0,0-4.58-5.61,12.75,12.75,0,0,0-7.43-2,31.36,31.36,0,0,0-16.16,5.31,32.88,32.88,0,0,0-8.16,7.86,26.18,26.18,0,0,0-4.66,12.31v.58q-1.74,16.6-3.13,28.76t-2.4,20.89q-1,8.75-1.68,14.57c-.43,3.88-.8,7.16-1.09,9.83s-.51,4.87-.65,6.62-.22,3.4-.22,4.95c0,.78,0,1.44.07,2s.07,1,.07,1.38a2.38,2.38,0,0,1-1.09,2,19.37,19.37,0,0,1-4.88,2l-34.22,9.9c-1.06.3-2.47.76-4.22,1.39a15,15,0,0,1-5.09.94,6.36,6.36,0,0,1-3.57-1,3.91,3.91,0,0,1-1.53-3.5v-.87q1-10.63,1.67-17.26c.44-4.42.83-8,1.17-10.7s.6-4.78.8-6.19.36-2.72.51-3.93.31-2.55.51-4,.41-3.51.65-6.18.59-6.22,1-10.63,1-10.22,1.68-17.4q.57-5.83,1.24-11.58a95.56,95.56,0,0,0,.65-10.56,96.9,96.9,0,0,0-.58-11.14,31,31,0,0,0-2.11-8.59,13.89,13.89,0,0,0-4.15-5.61,10.67,10.67,0,0,0-6.7-2,30.47,30.47,0,0,0-7.94,1.45,36.1,36.1,0,0,0-10,4.81,33.94,33.94,0,0,0-8.89,8.81A26.19,26.19,0,0,0,999,253.17q-1.17,10.77-1.89,17.69c-.49,4.61-.87,8.4-1.17,11.36s-.51,5.34-.65,7.13-.27,3.47-.36,5c-.1.39-.25,1.49-.44,3.28s-.42,3.93-.66,6.41-.48,5.14-.73,8-.46,5.53-.65,8-.37,4.61-.51,6.4-.22,2.89-.22,3.28v2.62a19.24,19.24,0,0,1-.14,2.48,3.73,3.73,0,0,1-.88,1.89,6.91,6.91,0,0,1-2.11,1.6,29.19,29.19,0,0,1-3.86,1.6l-38.15,13.54c-1.07.39-2.47.88-4.22,1.46a16.17,16.17,0,0,1-5.1.87,6.36,6.36,0,0,1-3.57-1,3.91,3.91,0,0,1-1.53-3.5l13.11-148.53a31.08,31.08,0,0,1,1.09-6.62c.44-1.21,1.53-2,3.28-2.4q13.25-2.62,27.08-5.32a238.83,238.83,0,0,0,27.09-6.92c.77,0,1.23.13,1.38.37a2.12,2.12,0,0,1,.22,1.09l-1.89,21.26q5.38-2.76,12.08-6t14-6a124.73,124.73,0,0,1,15-4.58,64.53,64.53,0,0,1,14.93-1.82,38.63,38.63,0,0,1,18.56,4.58q8.52,4.59,14.05,15.22a143.92,143.92,0,0,1,13.91-7.86,123.5,123.5,0,0,1,15-6.26,109.58,109.58,0,0,1,15.36-4.08,80.92,80.92,0,0,1,15-1.46,56.52,56.52,0,0,1,17.33,2.62A35.37,35.37,0,0,1,1183,197.1a41.59,41.59,0,0,1,9.54,15.51q3.49,9.54,3.5,23.23,0,3.49-.15,7.21t-.58,7.64l-6.7,62.32q-.74,6.12-.87,11.29t-.15,12c0,.78,0,1.44.07,2s.08,1,.08,1.38a2.32,2.32,0,0,1-1.09,2,22.25,22.25,0,0,1-4.88,1.89Z" fill="#fff"/><path d="M1429.84,353.49c-1.07.3-2.47.76-4.22,1.39a15,15,0,0,1-5.1.94,6.3,6.3,0,0,1-3.56-1,3.91,3.91,0,0,1-1.53-3.5v-.87q1-10.63,1.74-17.26c.49-4.42.88-8,1.17-10.7s.53-4.78.73-6.19.38-2.72.58-3.93.36-2.55.51-4,.36-3.51.65-6.18.66-6.22,1.1-10.63,1-10.22,1.67-17.4q.59-5.83,1.24-11.58a93.18,93.18,0,0,0,.65-10.56,86.05,86.05,0,0,0-.65-11.14,29.37,29.37,0,0,0-2.33-8.59,13.91,13.91,0,0,0-4.59-5.61,12.72,12.72,0,0,0-7.42-2,31.42,31.42,0,0,0-16.17,5.31,32.68,32.68,0,0,0-8.15,7.86,26.18,26.18,0,0,0-4.66,12.31v.58q-1.76,16.6-3.13,28.76T1376,300.34q-1,8.75-1.67,14.57t-1.09,9.83c-.29,2.67-.51,4.87-.66,6.62s-.22,3.4-.22,4.95c0,.78,0,1.44.08,2s.07,1,.07,1.38a2.38,2.38,0,0,1-1.09,2,19.54,19.54,0,0,1-4.88,2l-34.22,9.9c-1.07.3-2.47.76-4.22,1.39a15,15,0,0,1-5.1.94,6.36,6.36,0,0,1-3.57-1,3.93,3.93,0,0,1-1.52-3.5v-.87q1-10.63,1.67-17.26c.44-4.42.82-8,1.16-10.7s.61-4.78.81-6.19.36-2.72.5-3.93.32-2.55.51-4,.42-3.51.66-6.18.58-6.22,1-10.63,1-10.22,1.67-17.4q.59-5.83,1.24-11.58a93.34,93.34,0,0,0,.66-10.56,96.77,96.77,0,0,0-.59-11.14,30.6,30.6,0,0,0-2.11-8.59,13.8,13.8,0,0,0-4.15-5.61,10.63,10.63,0,0,0-6.7-2,30.41,30.41,0,0,0-7.93,1.45,36.29,36.29,0,0,0-10,4.81,33.91,33.91,0,0,0-8.88,8.81,26.1,26.1,0,0,0-4.44,13.47q-1.17,10.77-1.89,17.69t-1.17,11.36q-.43,4.44-.66,7.13c-.14,1.8-.26,3.47-.36,5-.1.39-.24,1.49-.44,3.28s-.41,3.93-.65,6.41-.49,5.14-.73,8-.46,5.53-.65,8-.37,4.61-.51,6.4-.22,2.89-.22,3.28v2.62a17.43,17.43,0,0,1-.15,2.48,3.8,3.8,0,0,1-.87,1.89,6.91,6.91,0,0,1-2.11,1.6,29.78,29.78,0,0,1-3.86,1.6l-38.15,13.54c-1.07.39-2.48.88-4.23,1.46a16.06,16.06,0,0,1-5.09.87,6.36,6.36,0,0,1-3.57-1,3.91,3.91,0,0,1-1.53-3.5l13.11-148.53a30.44,30.44,0,0,1,1.09-6.62q.66-1.82,3.27-2.4,13.26-2.62,27.09-5.32a238.13,238.13,0,0,0,27.08-6.92c.78,0,1.24.13,1.39.37a2.22,2.22,0,0,1,.22,1.09l-1.9,21.26q5.38-2.76,12.09-6t14-6a124.18,124.18,0,0,1,15-4.58,64.45,64.45,0,0,1,14.92-1.82,38.64,38.64,0,0,1,18.57,4.58q8.52,4.59,14,15.22a142.74,142.74,0,0,1,13.91-7.86,124,124,0,0,1,15-6.26,110.08,110.08,0,0,1,15.37-4.08,80.84,80.84,0,0,1,15-1.46,56.46,56.46,0,0,1,17.32,2.62,35.41,35.41,0,0,1,14.2,8.59,41.59,41.59,0,0,1,9.54,15.51q3.49,9.54,3.49,23.23,0,3.49-.14,7.21c-.1,2.47-.29,5-.59,7.64L1472.51,313q-.73,6.12-.88,11.29t-.14,12c0,.78,0,1.44.07,2s.07,1,.07,1.38a2.3,2.3,0,0,1-1.09,2,22,22,0,0,1-4.88,1.89Z" fill="#fff"/><path d="M1561.33,414.65a3.68,3.68,0,0,1-.65,1,1.75,1.75,0,0,1-1.24.36,4.71,4.71,0,0,1-1.31-.14c-3.5-1.27-6.8-2.33-9.9-3.21s-6.19-1.67-9.25-2.4-6.19-1.41-9.39-2-6.6-1.33-10.19-2.11a5,5,0,0,1-2.26-.95,2.74,2.74,0,0,1-.8-2.25,10.38,10.38,0,0,1,.51-2.11c.34-1.12,1.18-3.4,2.55-6.85s3.44-8.44,6.26-15,6.69-15.36,11.65-26.43q-2.19-7.28-5-17.47t-5.89-22.28q-3.14-12.08-6.48-25.55t-6.77-27.23q-3.42-13.77-6.85-27.23t-6.62-25.7a13.47,13.47,0,0,1-1.17-3.86c-.1-1-.14-1.87-.14-2.55,0-1.36.77-2.23,2.33-2.62q11.35-2.47,23.59-5.17a158.86,158.86,0,0,0,23.15-6.92,4.71,4.71,0,0,1,1.31-.14c1.26,0,1.94.48,2,1.45l17.76,97.86q.59-1.76,2.26-6.34t3.93-11q2.27-6.41,5-14.13t5.67-15.72q2.91-8,5.76-15.95t5.31-14.78q2.48-6.84,4.3-12.08c1.21-3.5,2.15-6.12,2.84-7.87a2.14,2.14,0,0,1,2.18-1.45,1.5,1.5,0,0,1,.58.07,1.5,1.5,0,0,0,.58.07,169.21,169.21,0,0,0,22.43,6.92q11.51,2.7,22.86,5.17a3,3,0,0,1,2.77,3.2,16.55,16.55,0,0,1-1.75,5.83l-60,135.56Z" fill="#fff"/><path d="M705.72,396.8h48.91V413H726.17v13.41h25.76v15.34H726.17V466.4H705.72Z" fill="#fff"/><path d="M811.26,396.8h20.45v69.6H811.26Z" fill="#fff"/><path d="M890.76,396.8h17l30,43.41-13.41-7.82h8.34V396.8h20.46v69.6H936.34l-30.15-44,13.36,7.82h-8.34V466.4H890.76Z" fill="#fff"/><path d="M1031.56,396.8h19.3v16.59h-6.66l-13.84,53h-21.52Zm-4.19,41.34h34.05l4.25,14.42h-42.55Zm17.22-24.75V396.8h12.63l22.72,69.6h-21.51Z" fill="#fff"/><path d="M1135.61,396.8h17l30,43.41-13.41-7.82h8.35V396.8H1198v69.6H1181.2l-30.15-44,13.36,7.82h-8.35V466.4h-20.45Z" fill="#fff"/><path d="M1271.47,463.41a28.76,28.76,0,0,1-11.91-12.3q-4.17-8.06-4.18-19.53v-.05q0-11.49,4.2-19.52a28.87,28.87,0,0,1,11.94-12.25,37.83,37.83,0,0,1,18.35-4.22,36,36,0,0,1,17,3.81,28.62,28.62,0,0,1,11.31,10.35,27.42,27.42,0,0,1,4,14.74v.43h-19.58l0-.58a14.65,14.65,0,0,0-1.86-6.2,11.47,11.47,0,0,0-4.29-4.29,12.87,12.87,0,0,0-6.54-1.57,11.86,11.86,0,0,0-7.25,2.27,14.3,14.3,0,0,0-4.73,6.56,28.89,28.89,0,0,0-1.67,10.42v0a29.66,29.66,0,0,0,1.67,10.54,14.23,14.23,0,0,0,4.75,6.63,12,12,0,0,0,7.28,2.27,12.86,12.86,0,0,0,6.27-1.5,11.67,11.67,0,0,0,4.44-4.22,14.51,14.51,0,0,0,2-6.39l0-.53h19.58v.53a26.82,26.82,0,0,1-4.12,14.66,29.29,29.29,0,0,1-11.41,10.33,36,36,0,0,1-16.89,3.81A37.73,37.73,0,0,1,1271.47,463.41Z" fill="#fff"/><path d="M1379.4,396.8h49.11V413h-28.65v11.1h26.87v15h-26.87v11h28.65V466.4H1379.4Z" fill="#fff"/></g></g></svg>
