<svg width="42" height="31" viewBox="0 0 42 31" fill="none" xmlns="http://www.w3.org/2000/svg">
<g clip-path="url(#clip0_1_66)">
<g clip-path="url(#clip1_1_66)">
<path d="M21.235 30.47C29.6491 30.47 36.47 23.6491 36.47 15.235C36.47 6.82094 29.6491 0 21.235 0C12.8209 0 6 6.82094 6 15.235C6 23.6491 12.8209 30.47 21.235 30.47Z" fill="#101233"/>
<path fill-rule="evenodd" clip-rule="evenodd" d="M16.9326 26.2286C16.9326 26.2286 18.3117 25.2803 21.2441 25.2803C24.1766 25.2803 25.5563 26.2286 25.5563 26.2286C25.5563 26.2286 25.154 26.738 24.6708 26.8904C24.1875 27.0427 23.544 26.8995 22.739 27.4717C21.934 28.044 21.2441 27.9818 21.2441 27.9818C21.2441 27.9818 20.5543 28.0427 19.7499 27.4717C18.9455 26.9007 18.3007 27.0421 17.8175 26.8904C17.3342 26.7386 16.9326 26.2286 16.9326 26.2286Z" fill="#03F5AE"/>
<path fill-rule="evenodd" clip-rule="evenodd" d="M20.2222 5.65097C19.3885 5.60526 18.2063 5.7052 17.4994 5.45413C16.2922 5.02755 16.0978 4.59548 15.0758 4.80999C14.3299 4.96661 14.1526 5.55102 14.0788 6.14519C15.8875 5.82038 16.9235 6.24026 16.9235 6.24026C14.3244 6.51753 13.4438 7.22078 13.389 7.26466C13.3203 7.3262 13.2632 7.39945 13.2202 7.48099C13.1361 7.65955 13.2013 7.72475 13.2165 8.07699C16.8278 6.98007 19.7127 7.74182 19.7127 7.74182C17.0801 7.80276 14.6187 8.26042 12.2634 9.40426L12.6095 10.6164C14.7754 9.83572 15.9942 10.3915 15.9942 10.3915C14.7 10.7034 13.4526 11.1845 12.2841 11.8224L12.5066 12.3842C12.0044 12.77 11.5925 14.2094 11.5925 14.2094C11.4706 13.4312 11.9581 12.358 11.9581 12.358C10.9386 12.419 10.5565 13.3867 10.5565 14.1917C10.5565 14.9967 11.0726 15.9053 11.6985 16.4965C12.3243 17.0876 12.4676 17.7396 12.4676 17.7396C12.9423 16.4422 12.0203 16.338 12.2713 14.7968C12.5224 13.2557 14.3725 12.436 14.3725 12.436C13.9927 12.3524 13.6071 12.2972 13.2189 12.2709C14.0154 12.149 14.573 10.8729 19.5073 14.0784C24.4417 17.2838 27.4972 14.0412 29.1359 13.06C29.6234 13.458 30.1328 14.0412 30.2559 14.7968C30.5064 16.3356 29.5856 16.4422 30.0591 17.7396C30.0591 17.7396 30.2023 17.087 30.8282 16.4965C31.454 15.9059 31.9732 14.9937 31.9732 14.1893C31.9732 13.3849 31.5887 12.4184 30.5686 12.3556C30.5686 12.3556 31.061 13.4287 30.9342 14.2069C30.9342 14.2069 30.5076 12.7139 29.9909 12.3617L30.262 11.6779L30.0104 11.4988C26.4972 9.36891 21.2441 9.4457 21.2441 9.4457C26.3326 8.9984 29.9256 10.6389 29.9256 10.6389L30.2249 9.40853L29.3035 8.95818C29.3035 8.95818 29.3437 8.08003 29.1913 7.75766C29.1017 7.56753 28.8403 7.38044 28.6429 7.25917C26.7287 6.41881 23.4355 6.24026 23.4355 6.24026C26.3674 5.96907 27.8232 6.15006 28.4101 6.27133C28.3083 5.6534 28.0444 4.74174 27.382 4.60219C26.9481 4.51078 26.6629 4.53576 26.3856 4.62839C26.2638 4.48884 25.8865 4.08298 25.4472 3.94465C24.9133 3.77645 24.2016 3.93429 23.3143 3.30173C22.427 2.66917 21.6616 2.73864 21.6616 2.73864C21.6616 2.73864 20.8992 2.66978 20.0095 3.30234C19.1198 3.93489 18.408 3.77706 17.8766 3.94525C17.3452 4.11345 16.8979 4.67653 16.8979 4.67653C16.8979 4.67653 17.9698 5.41269 20.2264 5.65157L20.2222 5.65097Z" fill="#03F5AE"/>
<path fill-rule="evenodd" clip-rule="evenodd" d="M21.2441 24.7892C21.2441 24.7892 18.7395 24.7983 17.5317 25.2273C16.3238 25.6563 16.1301 26.086 15.1081 25.8715C14.3616 25.7142 14.2031 25.0549 14.1294 24.4601C15.9381 24.7855 16.9235 24.234 16.9235 24.234C14.3244 23.9561 13.4438 23.2529 13.389 23.2096C13.3203 23.1481 13.2632 23.0748 13.2202 22.9933C13.1361 22.8141 13.1641 22.6947 13.1793 22.343C16.7913 23.4387 19.7115 22.7306 19.7115 22.7306C17.0789 22.6697 14.6175 22.212 12.2622 21.0682L12.6211 19.722C14.8759 20.2875 15.9911 20.0828 15.9911 20.0828C14.6974 19.7715 13.4504 19.291 12.2823 18.6537L12.5663 17.9377C16.2148 19.4258 26.2705 19.4258 29.9189 17.9377L30.259 18.7963L30.0104 18.9749C26.4972 21.1078 21.2441 21.031 21.2441 21.031C26.3326 21.4783 29.9256 19.8378 29.9256 19.8378L30.2249 21.0682L29.3035 21.5155C29.3035 21.5155 29.4198 22.6691 29.2675 22.9914C29.1779 23.181 28.9165 23.368 28.719 23.4893C26.8049 24.3303 23.4355 24.2334 23.4355 24.2334C26.3674 24.5046 27.8007 24.535 28.3851 24.4162C28.2833 25.0341 28.0463 25.7337 27.382 25.8739C26.3619 26.0884 26.1632 25.6594 24.9578 25.2298C23.7524 24.8001 21.2454 24.7916 21.2454 24.7916L21.2441 24.7892Z" fill="#03F5AE"/>
<path fill-rule="evenodd" clip-rule="evenodd" d="M15.7961 14.9565C15.7961 14.9565 15.3299 16.0772 16.2434 16.5245C17.1569 16.9718 19.4513 16.7457 19.4513 16.7457C19.4513 16.7457 17.4622 15.2795 15.7949 14.9565H15.7961Z" fill="white"/>
<path fill-rule="evenodd" clip-rule="evenodd" d="M27.1663 16.1071C27.1663 16.1071 27.3448 17.037 26.5758 17.2339C25.8067 17.4307 24.0894 16.8944 24.0894 16.8944C24.0894 16.8944 25.8421 16.0882 27.1663 16.1071Z" fill="white"/>
<path d="M30.4327 9.46033C30.4327 9.46033 32.1719 9.57428 33.231 10.1678C34.1494 10.6816 35.0434 11.865 35.0434 11.865C35.0434 11.865 33.7314 12.2782 33.3231 12.7584C32.9483 13.2008 32.8709 13.4013 32.8709 13.4013C32.8709 13.4013 31.9007 11.4372 30.153 10.7157L30.4327 9.46033Z" fill="#03F5AE"/>
<path d="M27.5514 25.6953C27.5514 25.6953 28.4131 26.4504 29.1816 26.6704C29.8476 26.8581 30.8135 26.724 30.8135 26.724C30.8135 26.724 30.3955 25.922 30.429 25.5089C30.4601 25.1286 30.5174 24.9994 30.5174 24.9994C29.7842 24.8982 29.0673 24.7024 28.3845 24.4168L27.5514 25.6953Z" fill="#03F5AE"/>
<path d="M12.264 17.7774C12.264 17.7774 10.9532 18.9267 9.78437 19.257C8.77155 19.5422 7.30228 19.3381 7.30228 19.3381C7.30228 19.3381 7.9385 18.1175 7.88914 17.4898C7.8416 16.9121 7.75446 16.7152 7.75446 16.7152C7.75446 16.7152 9.82947 17.4185 11.5754 16.6927L12.264 17.7774Z" fill="#03F5AE"/>
<path d="M16.7864 4.5644C16.7864 4.5644 15.815 3.85262 15.4177 3.11342C15.0734 2.47355 14.9911 1.45158 14.9911 1.45158C14.9911 1.45158 15.9095 1.69534 16.3257 1.5692C16.7084 1.45036 16.8278 1.36261 16.8278 1.36261C16.8278 1.36261 16.6645 2.86722 17.4141 3.93611L16.7864 4.5644Z" fill="#03F5AE"/>
</g>
</g>
<defs>
<clipPath id="clip0_1_66">
<rect width="42" height="30.471" fill="white"/>
</clipPath>
<clipPath id="clip1_1_66">
<rect width="30.47" height="30.47" fill="white" transform="translate(6)"/>
</clipPath>
</defs>
</svg>
